<?xml version="1.0" encoding="UTF-8" standalone="no"?>
<svg xmlns:svg="http://www.w3.org/2000/svg" xmlns="http://www.w3.org/2000/svg"  id="icon--menu" x="0" y="0" viewBox="0 0 420.6 389.17" width="420.6" height="389.17" preserveAspectRatio="xMinYMin meet"><style>path.menu {fill:#515151;}</style>
<g class="menu__paths"><path class="menu" d="M19.97 40.63C51.06 34.09 271.71 0 395.84 0c25.21 0 26.52 4.29 23.71 24.33-1.37 9.78-2.46 16.45-3.56 22.85-4.42 26.12-3.64 40.08-20 40.08-13.93 0-307.74-5-379.86-10.32C-.6 75.71-.61 71.34.3 62.5c.7-6.7.08-13.8 5.63-18.33 2.73-2.25 7.42-3.3 14-3.54"/><path class="menu" d="M19.97 195.96c31.09-6.54 251.74-40.63 375.87-40.63 25.21 0 26.52 4.29 23.71 24.33-1.37 9.78-2.46 16.45-3.56 22.85-4.42 26.12-3.64 40.08-20 40.08-13.93 0-307.74-5-379.86-10.32C-.6 231.04-.61 226.67.3 217.83c.7-6.7.08-13.8 5.63-18.33 2.73-2.25 7.42-3.3 14-3.54"/><path class="menu" d="M19.97 342.55c31.09-6.54 251.74-40.63 375.87-40.63 25.21 0 26.52 4.29 23.71 24.33-1.37 9.78-2.46 16.45-3.56 22.85-4.42 26.12-3.64 40.08-20 40.08-13.93 0-307.74-5-379.86-10.32C-.6 377.63-.61 373.26.3 364.42c.7-6.7.08-13.8 5.63-18.33 2.73-2.25 7.42-3.3 14-3.54"/></g></svg>