<?xml version="1.0" encoding="UTF-8" standalone="no"?>
<svg xmlns:svg="http://www.w3.org/2000/svg" xmlns="http://www.w3.org/2000/svg" version="1.1" id="icon--search" x="0px" y="0px" viewBox="0 0 270.09 375.62" width="270.09" height="375.62" preserveAspectRatio="xMidYMid meet"><style> path.search {fill:#515151;} </style><g class="search__paths"><path class="search" d="M68.08 226.39l1.71.7 1 .39 1.32.51 1.55.59 1.71.61a118.4 118.4 0 0 0 21.6 5.38 115.62 115.62 0 0 0 15.8 1.29h4.59l4.22-.18c.68 0 1.54-.1 2.35-.17l2.48-.22c.83-.08 1.68-.14 2.5-.25l2.45-.35a117.77 117.77 0 0 0 80.21-49.28 115.66 115.66 0 0 0 13.27-25 114.46 114.46 0 0 0 6.83-28.6l.37-3.73.19-3.75.09-1.88v-7.63l-.1-1.8c-.08-1.21-.12-2.37-.28-3.7l-.42-3.88c-.12-1.3-.39-2.53-.59-3.79a113 113 0 0 0-3.58-14.9 124.59 124.59 0 0 0-5.41-14.42 115.79 115.79 0 0 0-16.44-26.14c-1.6-2-3.39-3.9-5.08-5.85l-2.7-2.78c-.88-1-1.81-1.84-2.76-2.73-1.85-1.81-3.8-3.51-5.75-5.22-1-.87-2-1.64-3-2.46s-2-1.65-3.06-2.4l-3.12-2.32-3.35-2.25c-1.06-.76-2.15-1.45-3.26-2.13s-2.19-1.4-3.33-2c-2.26-1.29-4.5-2.63-6.85-3.77s-4.69-2.29-7.07-3.39A104.15 104.15 0 0 0 125.94.72c-1.3-.13-2.6-.29-3.9-.4l-3.91-.2h-7.65l-4 .2-2 .11-1.93.2-3.86.4-3.83.59-1.91.3-1.89.38-3.78.78-3.73 1-1.86.49-1.83.57-3.65 1.15-3.53 1.16-1.78.66c-.59.23-1.17.49-1.75.74l-3.48 1.49A114.64 114.64 0 0 0 7.6 70.25a97.74 97.74 0 0 0-6.56 24.32c-.25 2-.54 4-.64 5.94s-.32 3.9-.32 5.82-.13 3.81 0 5.68l.07 2.78v1.55a2.59 2.59 0 0 0 0 .31v.32l.05.65.2 2.56c.06.85.11 1.68.22 2.6.21 1.79.37 3.59.63 5.29s.51 3.36.81 5l1 4.81a116.13 116.13 0 0 0 5.38 17.13c1 2.58 2.14 5 3.19 7.28.56 1.13 1.14 2.23 1.69 3.3l.82 1.58.86 1.51a115.63 115.63 0 0 0 12 17.34c1.53 1.89 2.82 3.23 3.66 4.16l1.28 1.4a2.92 2.92 0 0 0 4.12.18c1.13-1 3.16-1.41.32-4l-.09-.11-1.12-1.41c-.73-.93-1.86-2.29-3.18-4.17a102.8 102.8 0 0 1-10.06-17l-.7-1.46-.55-1.53-1.33-3.17c-.81-2.2-1.7-4.48-2.43-6.93a106.52 106.52 0 0 1-3.71-16l-.53-4.41c-.15-1.5-.25-3-.36-4.57s-.08-3.05-.14-4.6v-2.46l.08-2.57v-.97s0-.25 0 0v-.15l.1-1.23.21-2.48c.1-1.66.41-3.33.63-5s.57-3.38.89-5.08.76-3.41 1.15-5.13a133.25 133.25 0 0 1 7.08-20.76c1.59-3.43 3.22-6.9 5.17-10.28l1.47-2.54c.51-.84 1.06-1.66 1.59-2.49 1-1.69 2.22-3.29 3.37-4.93s2.45-3.19 3.68-4.82l2-2.32c.66-.78 1.33-1.57 2-2.3l2.17-2.32c.7-.76 1.48-1.46 2.22-2.2 1.46-1.49 3.06-2.86 4.64-4.26.77-.72 1.63-1.35 2.44-2s1.63-1.36 2.49-2c1.73-1.25 3.41-2.59 5.24-3.74a112 112 0 0 1 11.25-6.68l3-1.44c.5-.24 1-.49 1.5-.72l1.53-.65 3.08-1.3 3.15-1.15 1.58-.57 1.61-.5 3.23-1 3.29-.85 1.65-.43 1.67-.34 3.36-.69 3.4-.52 1.71-.26 1.67-.17 3.35-.36 3.68-.19 1.85-.09h5.07c1.17 0 2.34.09 3.51.14 2.35 0 4.68.38 7 .52 1.17.13 2.34.3 3.52.45l1.76.23 1.76.3 3.53.6 3.5.78c.58.13 1.17.25 1.75.4l1.73.48c1.15.33 2.33.62 3.48 1a102.47 102.47 0 0 1 13.6 5.21 92.25 92.25 0 0 1 12.61 7.41 89.47 89.47 0 0 1 11.31 9.32c1.81 1.65 3.42 3.49 5.09 5.27s3.2 3.69 4.61 5.68a105.58 105.58 0 0 1 14 25.25c.79 2.25 1.67 4.46 2.3 6.75.33 1.14.72 2.26 1 3.41l.85 3.44a101 101 0 0 1 2.06 13.85c.07 1.15.22 2.32.25 3.44l.13 3.36c.07 1.07 0 2.33 0 3.52v3.44l-.18 3.4-.09 1.69-.18 1.68-.35 3.35-.51 3.32a104.74 104.74 0 0 1-20 46.47 105.22 105.22 0 0 1-34.32 29 99.66 99.66 0 0 1-36.11 10.95l-2.08.23c-.68.07-1.32.08-2 .12l-1.93.11c-.65 0-1.23.09-2 .08h-5.93c-.62 0-1.24 0-1.84-.07a106.12 106.12 0 0 1-13.21-1.47 98.89 98.89 0 0 1-17.93-5l-1.42-.54-1.16-.48-1-.41-.93-.41-1.69-.75a10 10 0 0 0-13.19 5.1c-2.24 5.05-5.83 6.24 5.1 13.19a1.91 1.91 0 0 0 .25.12z"/><path class="search" d="M186.61 282.17l7 11.53 18.58 30.3c3.84 6.27 8 13.06 12.47 20.21l6.85 11 7.25 11.45.46.73.2.32.12.18.24.36.33.46.4.53c.27.36.52.61.78.91a17.24 17.24 0 0 0 3.59 3 16.57 16.57 0 0 0 23.56-6.72 15.13 15.13 0 0 0 1.4-4.24 15.59 15.59 0 0 0-.91-8.7l-.44-1-.53-1c-.19-.34-.34-.6-.5-.85l-.48-.78q-3.88-6.22-7.36-12.7c-4.74-8.58-8.39-17.79-12.87-26.35s-8.9-17-13.23-25.08-8.65-15.86-12.84-23.16-8.13-14.23-12.42-20.24l-1.58-2.26-.92-1.32-.41-.53-.21-.26-.31-.37a16.39 16.39 0 0 0-1.37-1.47 16.77 16.77 0 0 0-1.36-1.16 17.06 17.06 0 0 0-17.87-2.16 10.17 10.17 0 0 0-1.23.64l-.59.34-.15.09-.21.13H182l-.21.16c-.29.22-.53.38-.86.64s-.74.62-1.09.93-.6.62-.9.93a8.76 8.76 0 0 0-.79 1 15.81 15.81 0 0 0-2.47 14.91 18.8 18.8 0 0 0 2.23 4.26l1.93 3c1.24 2.13 2 1.3 3 .64a2.2 2.2 0 0 0 .76-2.83l-1.6-3.15a13.7 13.7 0 0 1-1.35-3.38 10.15 10.15 0 0 1 0-4.46 9.69 9.69 0 0 1 2.57-4.64 8.57 8.57 0 0 1 1.08-.93c.17-.11.34-.22.5-.34s.58-.33.87-.5l.23-.13h.06l-.1.07h.09l.36-.14a4.31 4.31 0 0 1 .72-.26 9.73 9.73 0 0 1 1.51-.35 8.36 8.36 0 0 1 6.12 1.57 8 8 0 0 1 1.2 1.12 7.3 7.3 0 0 1 .5.65 5.09 5.09 0 0 1 .31.54 1.53 1.53 0 0 1 .09.15l.15.29.31.59.08.15v.07c-.26-.42-.05-.07-.1-.15l.14.31.28.61 1.16 2.48c3.06 6.72 7.1 13.59 11.32 20.88s8.81 14.9 13.69 22.69 9.92 15.85 15.1 24 11.32 15.93 16.38 24.32q3.86 6.26 7.32 12.73l.43.81a7.9 7.9 0 0 1 .38.75l.3.67.23.69a9.51 9.51 0 0 1 .44 2.84 9.28 9.28 0 0 1-.37 2.8 9.09 9.09 0 0 1-1.11 2.54 8.76 8.76 0 0 1-1.73 2.07l-.5.43-.45.31a2.66 2.66 0 0 1-.25.17l-.39.23-.39.22-.19.11-.1.05c.28-.18 0 0 .08-.06a9 9 0 0 1-5 .73 9.17 9.17 0 0 1-4.39-1.8 8.44 8.44 0 0 1-1.62-1.62c-.1-.15-.25-.32-.31-.44l-.11-.18a2.46 2.46 0 0 1-.16-.26l-.21-.38-.11-.19c-.09-.15.06.1 0 0l-.05-.1-.4-.76-6.29-12-6.11-11.44c-4-7.44-7.76-14.44-11.27-20.91l-17-31.24-6.5-11.81c-5.59-10.51-6.56-5-10.19-3a7.5 7.5 0 0 0-3 10.19z"/><path class="search" d="M114.27 45.57h-.59l-.7.06c-.46.05-1.11.14-1.77.26a16.34 16.34 0 0 0-2 .48 19.66 19.66 0 0 0-2.19.79 20.19 20.19 0 0 0-4.88 3 19.86 19.86 0 0 0-7.06 13.17 19.16 19.16 0 0 0-.11 2.22v1.2l.07.75a23 23 0 0 0 .46 2.63 18.69 18.69 0 0 0 .74 2.3 19.5 19.5 0 0 0 2.37 4.36 20.15 20.15 0 0 0 3.56 3.72 19 19 0 0 0 9.91 4.06 11 11 0 0 0 1.39.09h4a6.32 6.32 0 0 1 .9 0l1.57.13a27.53 27.53 0 0 1 3.4.5 12.8 12.8 0 0 1 1.75.42l1.77.47a33.76 33.76 0 0 1 6.89 3 37.59 37.59 0 0 1 6.33 4.71 25.79 25.79 0 0 1 5.19 6.38c.38.59.63 1.25 1 1.87a13.33 13.33 0 0 1 .85 1.94l.74 2c.19.69.34 1.39.5 2.09l.24 1.06.09 1.08.09 1.08.07 1.21.06 1.17c0 .47.12 1 .18 1.48a18.43 18.43 0 0 0 .72 2.71 17.74 17.74 0 0 0 6.94 8.92 16 16 0 0 0 5.57 2.3c.5.09 1 .15 1.52.21l1.43.08h.71l.87-.07a12.29 12.29 0 0 0 1.62-.25 17.64 17.64 0 0 0 13.21-12.19 11.35 11.35 0 0 0 .38-1.54 13.52 13.52 0 0 0 .25-1.56l.07-.79v-2.05a39.19 39.19 0 0 0-.06-4.59 44 44 0 0 0-.5-4.85 43.34 43.34 0 0 0-.87-4.56l-.56-2.21c-.19-.73-.45-1.44-.67-2.15l-.64-2.09c-.24-.69-.55-1.36-.82-2l-.84-2c-.27-.66-.63-1.27-.95-1.9a35.69 35.69 0 0 0-4.52-6.69 82.92 82.92 0 0 0-10-9.66 65.3 65.3 0 0 0-8.58-6c-2.52-1.41-4.51-2.46-5.92-3.06l-2.13-1a2.19 2.19 0 0 0-2.9 1.08c-.45 1-1.32 1.74.76 2.72l.13.09 1.8 1.23a52.32 52.32 0 0 1 4.86 3.73 58.48 58.48 0 0 1 6.58 6.7 40.41 40.41 0 0 1 3.39 4.59l1.53 2.66c.49.92.91 1.91 1.41 2.86l.36.72c.1.25.21.51.32.75l.68 1.51c.51 1 .91 2 1.39 3.06s.95 2.08 1.39 3.17c.22.54.47 1.08.66 1.64l.58 1.7c.19.57.42 1.13.59 1.72l.48 1.78c.15.6.37 1.19.49 1.8l.39 1.85c.31 1.26.47 2.44.66 3.65s.33 2.7.47 4.14l.1 1.1v-.02.53a4 4 0 0 1 0 .65 3.06 3.06 0 0 1-.07.65 8 8 0 0 1-.85 2.55 8.19 8.19 0 0 1-4.32 3.69c-.24.09-.49.2-.64.24l-.27.11a.87.87 0 0 1-.15.06h-.29l-.58.09h-.32c-.26 0-.53 0-.81.09a9.64 9.64 0 0 1-3.35-.34 8.56 8.56 0 0 1-5.44-4.67 9.16 9.16 0 0 1-.6-1.8l-.16-.85-.06-1.17-.06-1.14v-2.52l-.14-1.26a35 35 0 0 0-2.33-9.86 42.76 42.76 0 0 0-2.21-4.57 37.93 37.93 0 0 0-2.67-4.33 35.23 35.23 0 0 0-7.06-7.11 43.5 43.5 0 0 0-8.38-4.96l-2.23-.88a19.9 19.9 0 0 0-2.24-.79 38.67 38.67 0 0 0-4.62-1.17l-2.41-.43a10.25 10.25 0 0 0-1.07-.14l-1-.1-1.94-.19h-.88a2.37 2.37 0 0 1-.51-.09 6.68 6.68 0 0 1-3.32-1.81 7.43 7.43 0 0 1-1.06-1.4 6.39 6.39 0 0 1-.59-1.51 5.47 5.47 0 0 1-.15-.75 2.7 2.7 0 0 0 0-.42v-1.32.32-.09a5.51 5.51 0 0 1 .11-.68 6 6 0 0 1 2.46-3.63 5.6 5.6 0 0 1 1.42-.7 4.91 4.91 0 0 1 .61-.15c.17 0 .41-.09.41-.06s.06 0 .15 0h1.28c6.08-.1 6.54-3.18 7.37-7.64.75-4.08 2.66-7.37-7.64-7.37z"/></g></svg>