<svg id="Layer_1" data-name="Layer 1" xmlns="http://www.w3.org/2000/svg" viewBox="0 0 1088.33 995.88"><defs><style>.cls-1{fill:#fff;}</style></defs><path class="cls-1" d="M590.32,82.76h373.5a41.6,41.6,0,0,1,41.6,41.55V871.17a41.61,41.61,0,0,1-41.57,41.57H590.32a41.57,41.57,0,0,0,0,83.14h373.5a124.59,124.59,0,0,0,124.51-124.51V124.52A124.59,124.59,0,0,0,963.82,0H590.32A41.38,41.38,0,0,0,589,82.75Z"/><path class="cls-1" d="M655.7,468.19l-252.34-249A41.54,41.54,0,0,0,345,278.31l180.33,178H42.13a41.57,41.57,0,0,0-1.28,83.13H525.34L345,717.44c-16.39,16-16.39,42.35-.39,58.74a41.76,41.76,0,0,0,29.47,12.29,40.85,40.85,0,0,0,29.08-11.9l252.34-249a41.63,41.63,0,0,0,12.31-29.52A40.06,40.06,0,0,0,655.7,468.19Z"/></svg>