<?xml version="1.0" encoding="utf-8"?>
<svg version="1.1"  xmlns:dc="http://purl.org/dc/elements/1.1/" xmlns:svg="http://www.w3.org/2000/svg"
	 xmlns="http://www.w3.org/2000/svg"   viewBox="0 0 111.3 82" width="111.3" height="82"
	  >
	
<g>
	<path class="icon__path--color"  d="M93.8,69.2c1.1,5.7,2,9.9,1.5,10.2c-0.9,0.6-0.9,0.4-1.8,0.4c-3-0.1-4.1-5-5-10.6l-2.8,0
		c1,6.5,2.9,12.9,8.6,12.2c1.2-0.2,0.7,0.1,2.3-1c0.6-0.4,0-5-0.9-11.2H93.8z M74.6,69.2c-0.5,5.7-0.7,10.6-2.6,10.7
		c-0.6,0-1.6-0.2-2-0.8c-0.8-1.5-0.7-5.2-0.2-10l-2.5,0c-0.6,5.6-0.7,10.1,0.6,11.3c1.1,1.1,1.4,0.9,2.5,1.1
		c1.1,0.2,2.1,0.4,3.3-0.3c2.2-1.3,2.7-6.6,3.2-12.1L74.6,69.2z M33.7,69.2c1.4,5.9,2.7,12.4,4.1,12.5c1.4,0,1.7,0.2,2.4,0.1
		c0.7-0.1,1.8-0.1,3-1.2c1.2-1.1,1-5.7,0.4-11.3l-2.4,0c0.4,4.5,0.6,8.4,0.2,10.2c-0.4,0.8-1.4,0.8-2.1,0.8c-1.8-0.1-2.2-5.4-3-10.9
		H33.7z M13.6,69.2c-1,4.1-1.8,8.2-0.8,10.8c0.4,1.1,1.8,1.1,2.8,1.4c4.7,1.4,6.6-5.8,8-12.2h-1.8c-0.7,3.2-1.8,6.8-4.4,10.6
		c-0.3,0.5-2.7,0-2.8-0.6c-0.5-1.7,0.6-5.7,1.8-10H13.6z"/>
	<path class="icon__path--color"  d="M85.6,69.2c-0.9-5.9-1.1-11.9-2.7-13c-4.9-3.2-5.3,5.1-6,13l-2.3,0c0.6-7.7,1.6-16.7,7.2-16.7
		c4.6,0.1,5.4,9,6.7,16.7H85.6z M67.3,69.2c0.7-5.9,2-13.2,3.1-19.5l2.2,0c-1,6.6-2.2,13.8-2.7,19.5H67.3z M23.6,69.2
		c1-4.2,1.8-8,3.2-8.9c1.1-0.7,3-1.1,3.7-0.7c1.2,0.8,2.2,5,3.2,9.6l2.7,0c-0.7-4.6-1.7-9.3-3.9-11.4c-0.7-0.7-2.8-0.4-3.4-0.4
		c-6.6,0.2-5.9,5.1-7.3,11.8H23.6z M90.4,49.7c0.8,6.6,2.2,13.8,3.4,19.5h1.9c-0.9-5.9-2-13.1-2.7-19.5H90.4z M40.6,49.7
		c0.3,0.8,0.6,1.5,0.8,2.1c3.3,7.3-1.7,3.8-1.5,5.7c0.5,3.7,1,7.9,1.3,11.7h2.4c-0.4-3.2-0.9-6.8-1.4-10.1c-0.2-1.1,4.6-0.2,4.2-3.2
		c-0.2-1.4-1.4-3.8-2.6-6.2L40.6,49.7z M14,49.7c-0.6,2-1.2,3.8-1.7,5.3c-0.6,1.7,3.4,1.8,3.1,3.6c0.3,2.5-0.8,6.5-1.8,10.5l2.8,0
		c1.9-6.9,4-14.5-0.2-14.8c-1-0.1,0-1.8,1.2-4.7H14z"/>
	<path class="icon__path--color"  d="M70.4,49.7c0.5-2.7,0.9-5.2,1.2-7.3l2.1,0c-0.3,2.3-0.7,4.7-1.1,7.3L70.4,49.7z M108.9,42.4
		c0,0.4-0.1,0.7-0.2,0.8c-1.4,1.3-2,0.3-2.4-0.5c-0.1-0.1-0.2-0.3-0.2-0.4l-2,0c0.4,0.5,0.8,1,1.1,1.4c2,2.9,3.4,1.9,4.7,1.2
		c0.6-0.3,1.1-0.9,1.1-1.6c0-0.3,0-0.7,0-1.1H108.9z M89.8,42.4c0.1,2.2,0.3,4.7,0.6,7.3H93c-0.3-2.6-0.5-5.1-0.5-7.3H89.8z
		 M60.8,42.4c-0.6,0.8-1.1,1.4-1.4,1.9c-0.9,1-2.2,0.7-2.5,0.5c-0.3-0.2-1.8-1.1-0.9-2c0.1-0.1,0.3-0.3,0.4-0.4l-2.8,0
		c-0.2,0.3-0.3,0.5-0.5,0.7c-1.7,2.2,2.4,4.9,4.5,4.4c1.4-0.3,3.3-2.5,5.7-5.1H60.8z M46.4,42.4c1.4,1.2,2.9,2.2,4.7,2.9
		C51.9,45.7,52,44,52,44c-0.9-0.1-1.8-0.7-2.8-1.6H46.4z M38.6,42.4c0.6,2.6,1.3,5.2,2,7.3h3.3c-1.4-2.7-2.9-5.5-3.5-7.3H38.6z
		 M16.1,42.4c-0.6,2.3-1.3,4.9-2.1,7.3h3.4c0.6-1.6,1.3-3.5,1.7-5.6c0.1-0.5,0.2-1.1,0.3-1.7H16.1z M0.4,42.4c0.1,1,0.6,1.9,1.5,2.7
		c0.5,0.4,1.3,0.8,2.2,1c1.1,0.3,2.3,0.2,3.5-1.4c0.5-0.7,1-1.4,1.6-2.2H6.5C6.4,42.7,6.2,43,6,43.2C5.6,44,4.7,44.3,3.4,43
		c-0.1-0.1-0.2-0.3-0.3-0.5H0.4z"/>
	<path class="icon__path--color"  d="M104,42.4c-2-2.6-5-6-7.9-7.3h4.5c1.7,1.6,3.4,4,5.5,7.3H104z M53.6,42.4c1-1.4,2.7-4.3,5-7.3h3.7
		c-1.9,2.5-3.6,5.1-5.8,7.3L53.6,42.4z M105.1,35.1c2.1,2.8,3.8,5.8,3.8,7.3h1.9c-0.2-2.2-1.3-4.8-2.7-7.3H105.1z M90.5,35.1
		c-0.6,1.8-0.8,4.4-0.7,7.3h2.7c-0.1-3.6,0.2-6.3,1.1-7.3H90.5z M67.4,35.1c-3,2.5-5.1,5.3-6.6,7.3h2.6c2.1-2.3,4.7-4.9,7.7-6.9
		c1.2-0.8,1.1,2.2,0.4,6.9l2.1,0c0.4-2.9,0.7-5.4,0.7-7.3H67.4z M48.4,35.1c1.4,2.1,2.7,4.3,4.1,6.1c0,0,1.4-0.9,1.5-1.7
		c0.1-0.9-0.6-2.5-1.8-4.3L48.4,35.1z M39.8,35.1c0.1,0.1,0.2,0.3,0.4,0.4c1.2,1.3,3.3,4.3,6.3,6.9h2.8c-1.9-1.8-4.1-4.8-6.4-7.3
		L39.8,35.1z M37.4,35.1c0.2,2,0.6,4.6,1.2,7.3h1.8c-0.1-0.3-0.2-0.6-0.2-0.8c-0.6-3.8-1-5.7-1-6.5H37.4z M12.1,35.1
		c-1.7,1.5-3.1,3.4-5.5,7.3l2.6,0c2.2-2.8,5.2-6,7.2-6.9c1.1-0.5,0.7,2.7-0.3,6.9h3.3c0.4-2.4,0.7-5.2,0.6-7.3H12.1z M3.7,35.1
		c-2.1,2.7-3.5,5.2-3.3,7.3l2.7,0c-0.3-1.4,0.9-4.3,3.1-7.3H3.7z"/>
	<path class="icon__path--color"  d="M96,35.1c-0.4-0.2-0.8-0.3-1.1-0.4c-0.5-0.1-0.9,0-1.3,0.4h-3.1c0.7-2.2,1.9-3.5,4-3.2c2.1,0.3,4,1.2,6.1,3.2
		H96z M74.4,35.1c0.1-2.7-0.2-4.2-1.1-3.7c-2.2,1-4.2,2.3-5.8,3.7H74.4z M58.6,35.1c2.7-3.5,6.1-7.3,10.1-9.7h7c-1,0.3-2,0.6-3,1
		c-4.9,1.8-7.8,5.2-10.5,8.7H58.6z M39.2,35.1c-0.1-0.8,0.1-0.5,0.6,0h3c-1.5-1.6-3.1-3-4.7-3.7c-0.7-0.3-0.8,1.3-0.6,3.7H39.2z
		 M19.9,35.1c-0.1-2.8-1-4.5-3.1-3.2c-2.1,1.3-3.5,2.1-4.8,3.2H19.9z M92.5,25.4c3.2,1.1,6.2,3,9,5.7c1.2,1.1,2.4,2.6,3.6,4h3
		c-1.2-2-2.6-4-4-5.7c-1.3-1.6-2.7-2.9-4.2-4L92.5,25.4z M35.3,25.4c1.1,0.3,2.2,0.6,3.2,1c4.5,1.6,7.4,5.1,9.8,8.7h3.8
		c-2.2-3.3-6-7.4-9.6-9.7H35.3z M14,25.4c-2.1,1.3-4,2.8-5.9,4.7c-1.6,1.7-3.2,3.4-4.4,5h2.5c1-1.4,2.2-2.8,3.6-4
		c2.9-2.7,6.1-4.6,9.6-5.7H14z"/>
	<path class="icon__path--color"  d="M73.5,8.6c1.1-5.5,6.1-9.3,11.2-8.5c5.1,0.8,8.4,6,7.3,11.5c-1.1,5.5-6.1,9.3-11.2,8.5
		C75.7,19.3,72.5,14.1,73.5,8.6 M82,18.5c3.9,0.6,7.7-2.3,8.5-6.4c0.8-4.2-1.7-8.1-5.5-8.7c-3.9-0.6-7.7,2.3-8.5,6.4
		C75.6,13.9,78.1,17.8,82,18.5 M38.3,9.1C37.2,3.6,32.2-0.2,27,0.6c-5.1,0.8-8.4,6-7.3,11.5c1.1,5.5,6.1,9.3,11.2,8.5
		C36.1,19.8,39.4,14.6,38.3,9.1 M29.8,19c-3.9,0.6-7.7-2.3-8.5-6.4c-0.8-4.2,1.7-8.1,5.5-8.7c3.9-0.6,7.7,2.3,8.5,6.4
		C36.2,14.4,33.7,18.3,29.8,19 M17.9,5.5C17,4.1,14-1.5,9.3,3.9C5.6,8.2,6.8,10.6,1.9,12c-2.1,0.6-1,1.6-0.4,1.9
		c1.3,0.8,4.5,2.9,9.2-5.7c2-3.7,5.9-2.1,6.8-1.3C18.4,7.6,18.5,6.5,17.9,5.5 M68.7,25.4c0.8-0.5,1.6-0.9,2.5-1.3
		c10.1-4.1,20.6-4.6,28.6,1.3l-7.3,0c-5.2-1.9-10.9-1.7-16.8,0H68.7z M19.3,25.4c5-1.5,10.4-1.5,15.9,0h7.3c-0.8-0.5-1.7-1-2.5-1.3
		c-9.4-3.5-18.5-3.3-26.1,1.3H19.3z"/>
</g>
</svg>
