<?xml version="1.0" encoding="utf-8"?>
<svg version="1.1"  xmlns:dc="http://purl.org/dc/elements/1.1/" xmlns:svg="http://www.w3.org/2000/svg"
	 xmlns="http://www.w3.org/2000/svg"   viewBox="0 0 75.8 82" width="75.8" height="82"
	  >
	
<g>
	<path class="icon__path--color"  d="M58.5,70.9c0.1,3.5,0,6.6-0.1,8.3c-0.1,1.3,1,1.1,1.5,1.2c0.8,0.1,1.5-0.1,1.6-1.2c0.3-2.2,0.5-5.1,0.5-8.2h2
		c-0.1,3.2-0.4,6.5-0.9,9c-0.4,1.8-2.2,2.2-3.8,2c-1.1-0.2-2-0.4-2.3-1.7c-0.4-1.6-0.5-5.3-0.7-9.3H58.5z M45.4,70.9
		c-0.2,3.5-0.3,6.5-0.2,7.4c0.1,1.1,0.3,1.4,0.9,1.7c0.7,0.4,2.6,0.8,2.6-1c0-1.9,0-4.9,0.1-8.1h2.2c-0.2,4.3-0.5,8.3-1,9.6
		c-0.8,1.7-2.7,1.5-4.1,1.1c-0.9-0.3-1.3,0-1.7-1.2c-0.5-1.5-0.6-5.3-0.5-9.5H45.4z M20.9,70.9c-0.1,3.5-1.4,7.8-1,9.2
		c0.3,1,1,0.9,1.9,1.2c1.3,0.3,2.6,0.3,3.3-0.7c1-1.3,2.2-4.8,2.3-9.6l-2.3,0c-0.1,2.5-0.5,5.1-1.3,7.8c-0.2,0.7-0.2,1.3-0.9,1.5
		c-0.5,0.1-1.3,0.1-1.5-0.7c-0.3-1.2,0.5-5.2,0.7-8.6L20.9,70.9z M12,70.9c-0.1,3.4-0.5,6.6-1.2,8.4c-0.9,2.2,4.2,2.5,5,0.6
		c0.5-1.2,1.2-5.5,1.7-9h-1c-0.4,3.5-1,7.6-2,8.3c-0.9,0.6-3.1,0.7-2.7-0.3c1.1-2.3,1.7-5.1,1.9-8H12z"/>
	<path class="icon__path--color"  d="M17.6,70.9c0.3-2.5,0.6-4.5,0.6-4.5s1-0.1,1.6,0.4c1,0.8,1.2,2.3,1.2,4.1l1.1,0c0.1-2.4-0.1-4.4-1.1-5.1
		c-1.5-0.9-3.9-0.1-3.9-0.1s-0.1,2.4-0.5,5.2L17.6,70.9z M13.8,70.9c0.6-6.9-0.7-14-1.3-14.7c-0.5-0.5-2.2,0.2-1.7,0.7
		c0.9,0.9,1.5,7.9,1.2,14L13.8,70.9z M69.2,55.8c0,0,0,0.1,0,0.1c-0.6,2-5,1.7-5,1.7s0.3,6.6,0.1,13.3h-2c0.1-6.3-0.3-13.2-0.4-15.1
		H69.2z M56.7,55.8c1.1,1.3,1.7,8.8,1.9,15.1h-2.1c-0.2-6.3-0.5-13.3-1.7-14.1c-0.6-0.4-1.3-0.3-2,0c-1.3,0.5-1.6,7.7-1.9,14.1h-2.2
		c0.3-6.3,1-13.6,2.2-15.1H56.7z M46.5,55.8c-0.1,1.8-0.7,9.2-1.1,15.1h-1.9c0.2-6.6,0.8-14,0.8-14s-3.4,0-5.3-1.1H46.5z M23.2,55.8
		c-0.3,1,0,2.3,0.4,3.6c0.9,3.5,1.6,7.4,1.5,11.6l2.3,0c0.1-2.1-0.1-4.4-0.4-6.9c-0.4-2.9-1.7-6.7-1.4-8.2H23.2z"/>
	<path class="icon__path--color"  d="M50.9,55.8c0.1-0.1,0.2-0.2,0.3-0.3c0.7-0.3,4.7-0.3,5.3,0.1c0,0,0.1,0.1,0.1,0.1H50.9z M67.5,44.5
		c1.4,4.6,2.4,9,1.7,11.4l-7.5,0c0-0.4,0-0.6,0-0.6s4.8,0.9,5.4-1.2c0.6-2-0.2-5.6-1.4-9.6H67.5z M44,44.5c-1.4,5-2.5,9-2,9.6
		c1.4,1.7,4.6,1.3,4.6,1.3s0,0.1,0,0.4H39c-0.1-0.1-0.2-0.1-0.3-0.2c-0.9-0.6,0.3-5.5,2-11.2H44z M34,44.5c-1.4,2.5-4.6,7-9.6,9.9
		c-0.6,0.4-1,0.9-1.1,1.4h2.3c0.1-0.3,0.2-0.5,0.4-0.6c3.4-1.6,7.9-7.7,9.1-10.8H34z M14.1,44.5c0.1,0.3,0.3,0.6,0.4,0.9
		c1.7,2.8,4.8,4,7.1,2.7c1.3-0.7,2-2.1,2.1-3.6l-1.4,0c0,1.2-0.6,2.3-1.6,2.9c-1.7,1-4.1,0-5.4-2.1c-0.2-0.3-0.3-0.5-0.4-0.8
		L14.1,44.5z M4.6,44.5c0.3,0.4,0.7,0.9,1.1,1.4c5.1,5.2,12.4,8.8,19.6,5.4c3.1-1.5,4.8-4.6,6.7-6.8h-1.7c-1.5,1.8-2.7,3.8-5.3,5
		c-6.8,3.1-13.5,0.3-18.5-4.9c0,0,0,0-0.1-0.1H4.6z M0.5,44.5c1.4,3.9,6,9.3,10,10.1c0.5,0.1,1.9-0.5,1.2-0.6
		C8.5,53.5,3.2,48,1.6,44.5H0.5z"/>
	<path class="icon__path--color"  d="M54.3,12.9c-2.8,0.4-5.6-1.6-6.2-4.5c-0.6-2.9,1.2-5.6,4.1-6c2.8-0.4,5.6,1.6,6.2,4.5
		C59,9.7,57.2,12.4,54.3,12.9 M60.5,6c-0.8-3.8-4.5-6.5-8.3-5.9c-3.8,0.6-6.2,4.2-5.4,8c0.8,3.8,4.5,6.5,8.3,5.9
		C58.9,13.4,61.3,9.8,60.5,6 M65.7,44.5c-3.4-10.8-10.2-24.6-2.1-19.8c3.7,2.2,5.8,8,7.3,13.3c0.1,0.5,1.1,1.2,1.8,1.1
		c0.4-0.1,0.9,0,0.9-1c0.1-2.8-5.7-18.5-15.5-20.6c-7.8-1.6-14,0.9-19.3,6.9c-4.4,5-4.3,11.3-5,16.3c0,0-1.1,0.7-1.2,0.2
		c-2-7,2.6-21,14.5-24.8c4.3-1.3,7.7-1.5,12.3-0.2C70,18.7,75.3,36.2,75.2,38.9c0,1.2-1.3,1.3-2.3,1.6c-1.2,0.3-2.5-0.4-2.8-1.3
		c-1.1-2.5-1.9-7.8-6.6-12.2c-4.6-4.3,0.8,7.3,4,17.4H65.7z M40.7,44.5c2.9-9.6,7.1-21.5,4.3-18.8c-5.4,5.4-7.9,12.4-9,15.4
		c-0.2,0.6-1.1,0-1-0.6c0.6-4.3,2.7-11.9,9.3-16c6.5-4.1,2.5,9.8-0.4,20L40.7,44.5z M32,44.5c0.4-0.4,0.8-0.8,1.2-1.2
		c0.4-0.3,0.5-0.1,0.7,0c0.3,0.1,0.6,0.3,0.3,0.7c-0.1,0.2-0.2,0.3-0.3,0.5h1c0.1-0.2,0.1-0.4,0.2-0.6c0.2-0.8-0.5-1.1-1.1-1.4
		c-0.6-0.3-0.9-0.7-1.7,0c-0.8,0.6-1.4,1.3-2,2.1L32,44.5z M15,44.5c-0.7-1.9-0.3-3.9,1.2-4.7c1.7-1,4.1,0,5.4,2.1
		c0.5,0.9,0.8,1.8,0.7,2.7h1.4c0.1-1.2-0.2-2.5-1-3.8c-1.7-2.8-4.8-4-7.1-2.7c-2,1.1-2.6,3.9-1.5,6.5L15,44.5z M1.6,44.5
		C1.2,43.7,1,43,1,42.5c0-0.3,0.6-0.6,0.8-0.8C3,41,3.2,42.5,4.6,44.5h1.9c-2.3-2.5-2.2-4.6-4.8-3.6c-0.4,0.2-1.4,0.5-1.5,0.9
		c-0.2,0.7-0.1,1.6,0.3,2.7L1.6,44.5z"/>
</g>
</svg>
