<?xml version="1.0" encoding="utf-8"?>
<svg version="1.1"  xmlns:dc="http://purl.org/dc/elements/1.1/" xmlns:svg="http://www.w3.org/2000/svg"
	 xmlns="http://www.w3.org/2000/svg"   viewBox="0 0 82.1 83" width="82.1" height="83"
	  >
	
<g>
	<path class="icon__path--color"  d="M66.6,50.2c0,1.8,1.5,3.3,3.3,3.3c1.8,0,3.3-1.5,3.3-3.3s-1.5-3.3-3.3-3.3C68,46.9,66.6,48.4,66.6,50.2"/>
	<path class="icon__path--color"  d="M76.1,39.6c-7-3.5-14.1-0.1-17,5c-2.2,3.9-3.4,12,4.4,16.8c1.5,1,3.1,1.5,4.6,1.7c-0.9,2.3-2.8,6.3-5.6,9
		c-2.6,2.4-11.3,6.1-20.6,3.2C32,72.2,30.7,62.9,30.4,61.2c-0.3-1.7,0.1-3.4,1.3-5.2c1.2-1.8,1.4-4.6,1.4-4.6s1.2-1.6,4.6-4.5
		c3.4-2.9,7-11.5,9.2-17.7c2.1-6.2,4.3-14.2,3.4-17.9c-0.9-3.7-7.1-6.5-7.1-6.5S43,4.9,42.9,5c-0.5-2.4-2.6-4.3-5.2-4.3
		c-2.9,0-5.3,2.4-5.3,5.3c0,2.9,2.4,5.3,5.3,5.3c1.3,0,2.5-0.5,3.4-1.2c1.4,1,3.1,3.2,3,6.3c-0.1,4.4-2.9,16.3-6.2,23
		c-3.3,6.7-11.3,8.5-13.3,8.1c-2-0.4-6.2-3.2-10.2-7.7c-5.4-6.1-10.5-22-11.6-26C1.5,10,6.4,8.6,6.4,8.6l1.4-0.3
		c0.8,1.8,2.7,3.1,4.9,3.1c2.9,0,5.3-2.4,5.3-5.3c0-2.9-2.4-5.3-5.3-5.3c-2.3,0-4.2,1.5-5,3.5C6.1,5.1,4,6.2,2.9,7.1
		C0.9,8.6,0,11.6,0,13.7c0,2,3.1,13.4,6.6,22.8c3.5,9.4,12.5,16,12.5,16s0.1,1.2,1.1,3.3c1,2.1,2.5,3.5,2.5,3.5s-0.4,3.3,3.7,11.5
		C27,72.1,31.8,81.7,46.4,82c13.1,0.3,16.3-3.1,20.3-9.8c2-3.4,3-6.7,3.4-8.9c1.4,0,2.6-0.2,3.5-0.4c0.6-0.2,1.4-0.5,2.2-0.9
		c1-1,0-2-1.1-3.5c-0.4-0.6-1.2-0.6-2.4-0.1l-0.8,0.3c-0.9,0.2-2,0.3-2.9,0.1c-2.8-0.5-5-1.2-7-5c-0.9-1.8-1.7-7.2,2.6-10.4
		c4.1-3,11.2-1.8,13.4,1.3c1.4,1.9,2,2.6,2,6.1c0,2.5-0.6,3.8-1.4,5.1c0,0-0.3,0.4-0.3,0.6c-0.2,0.4-0.2,0.6-0.1,0.9
		c0.5,1,0.9,1.2,1.5,0.6c0.1-0.1,0.5-0.6,0.5-0.6c0.7-0.8,1.2-1.3,1.7-3C83,49.1,82.1,42.5,76.1,39.6"/>
</g>
</svg>
