<?xml version="1.0" encoding="utf-8"?>
<svg version="1.1"  xmlns:dc="http://purl.org/dc/elements/1.1/" xmlns:svg="http://www.w3.org/2000/svg"
	 xmlns="http://www.w3.org/2000/svg"   viewBox="0 0 93.8 82" width="93.8" height="82"
	  >
	
<g>
	<path class="icon__path--color"  d="M92.7,44.7c-0.5-1.1-1.3-2-2.3-2.7c-0.5-0.3-1-0.6-1.6-0.7c-0.3-0.1-0.6-0.1-0.9-0.2l-0.2,0l-0.1,0l-0.1,0
		c-0.1,0-0.2,0-0.3,0c-1.8-0.1-3.5-0.1-5.1-0.1c-1.6,0-3-0.1-4.3-0.1c-1.3,0-2.4,0-3.3-0.1c-1.5,0-2.5,0-2.8,0c0,0,0,0,0,0
		c-0.1,0-0.1,0-0.1,0v0c-0.6,0-1,0.1-1,0.1c-0.8,0.1-0.7,1.2-0.7,2.4c0,0.4,0.3,0.7,1.1,0.7c0.2,0,0.4,0,0.6,0c0,0,0,0,0,0
		c0,0,0,0,0,0c0.1,0,1.2,0,2.9,0c0.9,0,2,0,3.3-0.1c1.3,0,2.7-0.1,4.3-0.1c1.6,0,3.3-0.1,5.1-0.1c0.1,0,0.2,0,0.3,0h0l0,0
		c0,0,0,0,0,0h0.1l0.2,0c0.1,0,0.3,0,0.5,0c0.3,0.1,0.7,0.2,1,0.4c0.7,0.3,1.2,0.9,1.7,1.7c0.4,0.7,0.7,1.6,0.8,2.5
		c0,0.1,0,0.2,0,0.3c0,0.1,0,0.3,0,0.4c0,0.2,0,0.5,0,0.7c-0.1,0.5-0.2,1-0.3,1.4c-0.3,0.9-0.9,1.8-1.6,2.3
		c-0.4,0.3-0.8,0.5-1.3,0.6c-0.2,0.1-0.5,0.1-0.7,0.1c-0.1,0-0.2,0-0.4,0l-0.4,0c-2.1-0.1-4.2-0.4-6.3-0.5c-2.1-0.1-4.1-0.2-6.1-0.2
		c-2-0.1-3.9-0.1-5.7-0.1c-0.5,0-0.9,0-1.3,0c-0.1,0-0.2,0-0.3,0l-0.2,0l-0.2,0c-0.1,0-0.2,0-0.3,0c-0.1,0-0.2,0-0.2,0
		c-0.2,0-0.3,0.1-0.5,0.1c-0.6,0.2-1.1,0.5-1.5,0.9c-0.4,0.4-0.7,0.9-1,1.4c-0.2,0.5-0.3,1.1-0.3,1.6c0,0.3,0,0.5,0,0.7
		c0,0.2,0,0.4,0,0.6c0,0.8,0.1,1.5,0.1,2.1c0.1,1.3,0.1,2.5,0.2,3.5c0,0.5,0,0.9,0.1,1.3c-0.2,0-0.5,0-0.7,0.1
		c-0.3,0.1-0.6,0.1-0.9,0.2l-0.2,0L61.7,66c-0.1,0-0.3,0.1-0.4,0.1c-0.1,0-0.3,0.1-0.4,0.1c-0.1,0.1-0.3,0.1-0.4,0.2
		c-1.1,0.5-2.2,1.1-3.2,2c-1,0.9-1.8,2-2.4,3.2c-0.6,1.2-1,2.6-1.2,4l0,0.5c0,0.2,0,0.3,0,0.5c0,0.3,0,0.7,0,1
		c0,0.2-0.1,0.5-0.1,0.7c-0.1,0.2-0.2,0.5-0.4,0.6c-0.3,0.4-0.7,0.7-1.2,0.8l-0.2,0l-0.2,0c-0.1,0-0.1,0-0.2,0l-0.2,0l-0.9,0
		c-1.3,0-2.5,0-3.8,0c-1.3,0-2.5-0.1-3.8-0.2l-0.9-0.1l-0.2,0l-0.1,0h0c0,0,0,0,0,0l-0.1,0l-0.2,0c0,0-0.1,0-0.1,0
		c-0.2-0.1-0.4-0.2-0.6-0.3c-0.2-0.1-0.3-0.3-0.5-0.4c-0.3-0.3-0.4-0.8-0.4-1.2v-0.2l0-0.3l0-0.5l0-0.2c0-0.1,0-0.2,0-0.3l-0.1-0.6
		L39,75l-0.1-0.5L38.8,74c0-0.2-0.1-0.3-0.2-0.5L38.5,73c-0.1-0.2-0.1-0.3-0.2-0.5c-0.1-0.3-0.3-0.6-0.4-0.9
		c-0.6-1.2-1.5-2.3-2.5-3.2c-1-0.9-2.1-1.5-3.3-2c-0.1-0.1-0.3-0.1-0.4-0.2c-0.1,0-0.3-0.1-0.4-0.1c-0.1,0-0.3-0.1-0.4-0.1l-0.2-0.1
		l-0.1,0c0-0.4,0-0.8,0.1-1.2c0-1,0.1-2.1,0.2-3.5c0-0.7,0.1-1.4,0.1-2.2c0-0.4,0-0.8,0.1-1.2c0-0.5,0-1.1-0.2-1.6
		c-0.3-1.1-1.2-2.1-2.3-2.6c-0.3-0.1-0.6-0.2-0.9-0.2c-0.1,0-0.2,0-0.3,0l-0.2,0c-0.1,0-0.2,0-0.4,0c-0.4,0-0.9,0-1.3,0
		c-1.8,0-3.7,0-5.7,0.1c-2,0.1-4,0.2-6.1,0.2c-2.1,0.1-4.2,0.4-6.3,0.5l-0.4,0l-0.2,0H6.4c-0.2,0-0.5,0-0.7-0.1
		c-0.5-0.1-0.9-0.3-1.3-0.6c-0.8-0.6-1.3-1.4-1.7-2.3c-0.2-0.5-0.3-0.9-0.4-1.4c0-0.2,0-0.5,0-0.7c0-0.1,0-0.2,0-0.4l0-0.1l0-0.1
		c0,0,0,0,0,0l0,0l0-0.2c0.1-0.9,0.4-1.8,0.8-2.6c0.4-0.7,1-1.3,1.7-1.7c0.3-0.2,0.7-0.3,1-0.4c0.2,0,0.4-0.1,0.5-0.1
		c0.1,0,0.3,0,0.3,0c0.1,0,0.2,0,0.3,0c1.8,0.1,3.5,0.1,5.1,0.1c1.6,0,3,0.1,4.3,0.1c1.3,0,2.4,0,3.3,0.1c1.8,0,2.9,0,2.9,0v-0.1
		l0,0.1c0.2,0,0.4,0,0.6,0c0.8,0,1.1-0.3,1.1-0.7c0-1.2,0.1-2.3-0.7-2.4c0,0-0.3-0.1-1-0.1v0c0,0,0,0-0.1,0c0,0,0,0,0,0
		c-0.3,0-1.3,0-2.8,0c-0.9,0-2,0-3.3,0.1c-1.3,0-2.7,0.1-4.3,0.1c-1.6,0-3.3,0.1-5.1,0.1c-0.1,0-0.2,0-0.3,0c-0.2,0-0.2,0-0.4,0
		l-0.2,0c-0.1,0-0.1,0-0.2,0c-0.1,0-0.3,0.1-0.4,0.1c-0.6,0.2-1.1,0.4-1.6,0.8c-1,0.7-1.8,1.6-2.3,2.7c-0.5,1.1-0.8,2.3-0.7,3.5
		l0,0.2l0,0.1l0,0.1l0,0.1c0,0.1,0,0.3,0,0.4c0,0.3,0.1,0.6,0.2,0.9c0.1,0.6,0.3,1.2,0.6,1.7c0.5,1.1,1.3,2,2.3,2.7
		c0.5,0.3,1,0.6,1.6,0.7c0.3,0.1,0.6,0.1,0.9,0.1l0.2,0l0.2,0l0.4,0c2.1,0.1,4.2,0.4,6.3,0.5c2.1,0.1,4.1,0.2,6.1,0.2
		c2,0.1,3.9,0.1,5.7,0.1c0.5,0,0.9,0,1.3,0c0.1,0,0.2,0,0.3,0H27c0,0,0,0,0.1,0c0.1,0,0.2,0,0.4,0.1c0.5,0.1,0.9,0.4,1.2,0.9
		c0.1,0.2,0.2,0.5,0.2,0.8c0,0.4,0.1,0.8,0.1,1.2c0,0.8,0.1,1.5,0.1,2.2c0.1,1.4,0.1,2.5,0.2,3.5c0,0.4,0,0.7,0.1,1.1
		c-0.3,0-0.5,0-0.7,0l-0.2,0l0,0c0,0-0.1,0-0.1,0l0,0l-0.1,0c-0.1,0-0.3,0-0.4,0c-0.1,0-0.3,0-0.4,0l-0.1,0l-0.1,0l-0.2,0
		c-0.3,0.1-0.6,0.1-0.9,0.2c-0.3,0.1-0.5,0.2-0.8,0.3c-1,0.4-1.9,0.9-2.7,1.5c-0.1,0.1-0.2,0.1-0.3,0.2c-0.1,0.1-0.2,0.2-0.3,0.2
		c-0.2,0.2-0.4,0.3-0.5,0.5c-0.2,0.2-0.3,0.3-0.5,0.5c-0.2,0.2-0.3,0.3-0.4,0.5c-1.1,1.3-1.7,2.7-2.1,3.9c-0.2,0.6-0.3,1.1-0.4,1.6
		C18,75.6,18,76,18,76.3c0,0.7,0,1,0,1c0,0.9,0.3,1,0.8,0.5c0.1-0.1,0.1-0.1,0.1-0.5h0c0,0,0-0.3,0.1-0.9c0-0.3,0.1-0.7,0.2-1.1
		c0.1-0.4,0.2-0.9,0.5-1.4c0.4-1,1.1-2.1,2.1-3.2c0.1-0.1,0.3-0.3,0.4-0.4c0.1-0.1,0.3-0.2,0.4-0.4c0.2-0.1,0.3-0.2,0.5-0.3
		c0.1-0.1,0.2-0.1,0.2-0.2c0.1,0,0.2-0.1,0.3-0.1c0.7-0.4,1.5-0.7,2.3-0.8c0.2,0,0.4-0.1,0.6-0.1c0.2,0,0.4,0,0.6-0.1l0.1,0l0.1,0
		l0.1,0c0.1,0,0.3,0,0.4,0c0.1,0,0.3,0,0.4,0l0.1,0h0h0l0.2,0c0.9,0,1.8,0.2,2.7,0.5c0.9,0.3,1.8,0.8,2.5,1.5c0.8,0.7,1.5,1.5,2,2.4
		c0.2,0.2,0.3,0.5,0.4,0.7c0.1,0.1,0.1,0.2,0.2,0.4l0.1,0.4c0,0.1,0.1,0.3,0.1,0.4l0.1,0.4l0.1,0.4l0.1,0.4l0.1,0.4
		c0,0.1,0,0.1,0,0.2l0,0.2c0,0.3,0.1,0.7,0.1,1c0.1,0.9,0.5,1.7,1.1,2.3c0.6,0.6,1.4,1,2.2,1.2c0.1,0,0.2,0,0.3,0l0.2,0l0.1,0
		c0,0,0.1,0,0.1,0l0,0l0.1,0l0.2,0l0.9-0.1c1.3-0.1,2.5-0.2,3.8-0.2c1.3,0,2.5,0,3.8,0l0.9,0l0.2,0c0.1,0,0.1,0,0.3,0l0.3,0l0.3,0
		c0.8-0.1,1.5-0.5,2-1.1c0.3-0.3,0.5-0.6,0.7-1c0.2-0.4,0.3-0.7,0.3-1.2c0-0.3,0.1-0.6,0.1-1c0-0.1,0-0.3,0.1-0.4l0.1-0.4
		c0.2-1.1,0.7-2.2,1.2-3.2c0.6-0.9,1.3-1.8,2.1-2.4c0.8-0.7,1.7-1.1,2.6-1.4c0.1,0,0.2-0.1,0.3-0.1c0.1,0,0.2-0.1,0.3-0.1
		c0.1,0,0.2-0.1,0.3-0.1l0.2,0l0.2,0c0.2,0,0.4-0.1,0.6-0.1c0.3,0,0.5,0,0.8,0l0.2,0h0c0,0,0,0,0,0l0,0l0.1,0c0.1,0,0.2,0,0.3,0
		c0.2,0,0.4,0,0.6,0.1c0.2,0,0.4,0.1,0.6,0.1c0.2,0.1,0.4,0.1,0.6,0.2c0.8,0.3,1.5,0.6,2.1,1.1c0.1,0.1,0.2,0.1,0.2,0.2
		c0.1,0.1,0.1,0.1,0.2,0.2c0.1,0.1,0.3,0.2,0.4,0.3c0.1,0.1,0.3,0.3,0.4,0.4c0.1,0.1,0.3,0.2,0.4,0.4c0.9,1,1.4,2.1,1.7,3
		c0.2,0.5,0.2,0.9,0.3,1.3c0,0.2,0,0.3,0.1,0.5c0,0.1,0,0.1,0,0.2c0,0,0,0.1,0,0.1c0,0,0,0.1,0,0.1c0,0.6,0,1,0,1h0
		c0.1,0.7,0.1,0.9,0.1,0.9c0.1,0.8,1.2,0.7,2.3,0.7c0.4,0,0.7-0.3,0.6-1.1c0-0.2,0-0.4,0-0.6h0c0,0,0-0.3-0.1-1c0-0.1,0-0.2,0-0.3
		c0-0.1,0-0.2,0-0.3c0-0.2-0.1-0.5-0.1-0.8c-0.1-0.5-0.3-1.1-0.5-1.7c-0.5-1.3-1.2-2.7-2.5-4c-0.1-0.2-0.3-0.3-0.5-0.5
		c-0.2-0.2-0.3-0.3-0.5-0.5c-0.2-0.1-0.4-0.3-0.6-0.4c-0.1-0.1-0.2-0.2-0.3-0.2c-0.1-0.1-0.2-0.1-0.3-0.2c-0.8-0.6-1.8-1-2.9-1.3
		c-0.3-0.1-0.5-0.1-0.8-0.2c-0.3,0-0.5-0.1-0.8-0.1c-0.2,0-0.5-0.1-0.7-0.1c0-0.4,0-0.8,0.1-1.3c0-1,0.1-2.1,0.2-3.5
		c0-0.7,0.1-1.4,0.1-2.1c0-0.2,0-0.4,0-0.6c0-0.2,0-0.4,0.1-0.5c0-0.3,0.1-0.5,0.3-0.7c0.3-0.4,0.7-0.7,1.2-0.8c0.1,0,0.1,0,0.2,0
		l0.1,0c0,0,0,0,0.1,0h0.1h0h0c-0.1,0,0,0,0,0l0.2,0c0.1,0,0.2,0,0.3,0c0.4,0,0.9,0,1.3,0c1.8,0,3.7,0,5.7-0.1c2-0.1,4-0.2,6.1-0.2
		c2.1-0.1,4.2-0.4,6.3-0.5l0.4,0c0.1,0,0.3,0,0.4,0c0.3,0,0.6-0.1,0.9-0.2c0.3-0.1,0.6-0.2,0.8-0.3c0.3-0.1,0.5-0.3,0.8-0.4
		c1-0.7,1.8-1.6,2.3-2.7c0.3-0.5,0.4-1.1,0.6-1.7c0.1-0.3,0.1-0.6,0.1-0.9c0-0.2,0-0.3,0-0.4c0-0.2,0-0.3,0-0.5
		C93.5,47,93.2,45.8,92.7,44.7"/>
	<path class="icon__path--color"  d="M17.3,23.4c0.7,1.2,1.4,2.1,2.1,2.9c0.3,0.4,0.7,0.7,1,1.1c0.3,0.3,0.6,0.6,0.9,0.9c0.3,0.3,0.6,0.5,0.8,0.7
		c0.2,0.2,0.4,0.3,0.6,0.4c0.3,0.2,0.5,0.4,0.5,0.4l0,0c0.2,0.1,0.3,0.2,0.5,0.3c0.7,0.5,1.1,0.4,1.3,0c0.6-1,1.3-1.9,0.7-2.4
		c0,0-0.3-0.3-0.8-0.7l0,0c-0.1-0.1-0.2-0.1-0.3-0.2c-0.1-0.1-0.4-0.2-0.5-0.4c-0.2-0.2-0.4-0.3-0.7-0.5c-0.3-0.2-0.5-0.5-0.8-0.7
		c-0.3-0.3-0.6-0.6-0.9-0.9c-0.6-0.7-1.3-1.4-1.9-2.4c-0.6-0.9-1.2-2-1.6-3.2c-0.1-0.3-0.2-0.6-0.3-0.9c0-0.2-0.1-0.3-0.1-0.5
		L17.5,17l0-0.3c-0.1-0.7-0.2-1.4-0.2-2.1c0-0.7,0-1.4,0.1-2.2c0.1-0.7,0.3-1.5,0.5-2.2c0.3-0.7,0.6-1.4,1-2.1
		c0.4-0.7,0.9-1.3,1.4-1.9c0.6-0.5,1.2-1,1.8-1.4c0.7-0.4,1.3-0.7,2-0.9c0.7-0.3,1.4-0.5,2-0.6c0.7-0.1,1.4-0.2,2-0.2
		c0.7,0,1.3,0.1,2,0.2c0.6,0.1,1.2,0.3,1.8,0.5c0.1,0.1,0.3,0.1,0.4,0.1c0.1,0,0.3,0.1,0.4,0.2c0.3,0.1,0.5,0.2,0.8,0.4
		c0.3,0.1,0.5,0.3,0.8,0.4c0.3,0.1,0.5,0.3,0.8,0.4c0.2,0.1,0.5,0.3,0.7,0.4c0.2,0.1,0.5,0.3,0.7,0.4c0.4,0.3,0.8,0.6,1.2,0.9
		c0.4,0.3,0.7,0.6,1,0.9c0.3,0.3,0.5,0.6,0.8,0.8c0.2,0.3,0.4,0.5,0.6,0.7c0.2,0.2,0.3,0.4,0.4,0.5c0.1,0.1,0.2,0.2,0.2,0.3
		c0.2,0.4,0.3,0.5,0.5,0.5c0.7,0.1,0.9-0.2,0.4-0.9c0-0.1-0.1-0.2-0.3-0.5c-0.1-0.2-0.2-0.4-0.4-0.6c-0.1-0.2-0.3-0.5-0.5-0.8
		c-0.2-0.3-0.4-0.6-0.7-1c-0.3-0.4-0.5-0.8-0.9-1.1c-0.3-0.4-0.7-0.8-1.1-1.2c-0.2-0.2-0.4-0.4-0.6-0.7c-0.2-0.2-0.5-0.4-0.7-0.7
		c-0.3-0.2-0.5-0.4-0.8-0.6c-0.3-0.2-0.6-0.4-0.9-0.5c-0.3-0.2-0.6-0.3-1-0.5c-0.3-0.1-0.7-0.3-1-0.4C32.6,1,32.4,1,32.2,0.9
		c-0.2,0-0.4-0.1-0.6-0.1c-0.2,0-0.4-0.1-0.6-0.1c-0.2,0-0.4-0.1-0.6-0.1c-0.8-0.1-1.6-0.1-2.4,0c-0.8,0.1-1.6,0.2-2.4,0.5
		c-0.8,0.3-1.6,0.6-2.3,1c-0.2,0.1-0.4,0.2-0.5,0.3c-0.2,0.1-0.4,0.2-0.5,0.4l-0.5,0.4c-0.2,0.1-0.3,0.3-0.5,0.4
		c-0.6,0.6-1.2,1.2-1.8,1.9c-0.6,0.6-1.1,1.3-1.6,2c-0.5,0.7-0.9,1.4-1.3,2.2c-0.1,0.2-0.2,0.4-0.3,0.6c-0.1,0.2-0.2,0.4-0.2,0.6
		c-0.1,0.2-0.2,0.4-0.2,0.6l-0.1,0.3L15.7,12c-0.1,0.4-0.2,0.8-0.3,1.2c-0.1,0.4-0.1,0.8-0.2,1.3c-0.2,1.7,0,3.4,0.4,4.9
		C16.1,20.9,16.7,22.3,17.3,23.4"/>
	<path class="icon__path--color"  d="M26.4,28.9c-2.5,7.6-2,22.1,12.5,28.1c10.6,4.4,20.5-2.3,20.5-2.3c0.8-0.5,0.1-1.6-0.4-2.9
		c-0.2-0.4-0.6-0.6-1.4-0.2c-3.1,1.5-5,2.5-7.9,3c-5.4,1-15.7-0.7-20.4-10.7c-2.9-6.2-4-17.3,4.9-24.2c8.1-6.3,17.8-3.9,22.7,0
		c3.9,3,6.3,6.7,7.7,12c1.6,6.3-0.5,12.4-2.3,15.1c-0.6,0.9-0.8,1.1-0.7,1.5c0.3,1,0.7,1.1,1.4,0c0.4-0.7,2.9-3.9,4-9.7
		c1.6-9-2.5-20.8-13.5-24C40.5,10.8,29.7,18.9,26.4,28.9"/>
	<path class="icon__path--color"  d="M52.1,10.7c0.2,0,0.3-0.1,0.5-0.5c0.1-0.1,0.1-0.2,0.2-0.3c0.1-0.1,0.3-0.3,0.4-0.5c0.2-0.2,0.4-0.4,0.6-0.7
		c0.2-0.3,0.5-0.5,0.8-0.8c0.3-0.3,0.6-0.6,1-0.9C56,6.6,56.4,6.3,56.8,6c0.2-0.1,0.4-0.3,0.7-0.4c0.2-0.1,0.5-0.3,0.7-0.4
		c0.3-0.1,0.5-0.3,0.8-0.4c0.3-0.1,0.5-0.3,0.8-0.4C60,4.3,60.2,4.1,60.5,4c0.1-0.1,0.3-0.1,0.4-0.2c0.1-0.1,0.3-0.1,0.4-0.2
		c0.6-0.2,1.2-0.4,1.8-0.5c0.6-0.1,1.3-0.2,1.9-0.2c0.7,0,1.3,0.1,2,0.2c0.7,0.1,1.4,0.4,2,0.6c0.7,0.3,1.4,0.6,2,0.9
		c0.7,0.4,1.3,0.8,1.8,1.4c0.6,0.5,1,1.2,1.4,1.9c0.4,0.7,0.7,1.4,1,2.1c0.3,0.7,0.4,1.5,0.5,2.2c0.1,0.7,0.2,1.5,0.1,2.2
		c0,0.7-0.1,1.4-0.2,2.1l0,0.3l-0.1,0.2c0,0.2-0.1,0.3-0.1,0.5c-0.1,0.3-0.2,0.6-0.3,0.9c-0.4,1.2-1,2.3-1.6,3.2
		c-0.6,0.9-1.3,1.7-1.9,2.4c-0.3,0.3-0.6,0.6-0.9,0.9c-0.3,0.3-0.6,0.5-0.8,0.7c-0.3,0.2-0.5,0.4-0.7,0.5c-0.2,0.2-0.4,0.3-0.6,0.4
		c-0.1,0.1-0.2,0.2-0.3,0.2c0,0,0,0,0,0c-0.1,0.1-0.2,0.1-0.2,0.1l0,0c-0.4,0.3-0.6,0.6-0.6,0.6c-0.6,0.5,0.1,1.4,0.7,2.4
		c0.2,0.4,0.6,0.4,1.3,0c0.2-0.1,0.3-0.2,0.5-0.4l0,0c0,0,0.2-0.1,0.5-0.4c0.2-0.1,0.3-0.2,0.6-0.4c0.2-0.2,0.5-0.4,0.8-0.7
		c0.3-0.3,0.6-0.5,0.9-0.9c0.3-0.3,0.7-0.7,1-1.1c0.7-0.8,1.4-1.8,2.1-2.9c0.7-1.1,1.3-2.5,1.7-4c0.4-1.5,0.6-3.2,0.4-4.9
		c0-0.4-0.1-0.8-0.2-1.3c-0.1-0.4-0.2-0.8-0.3-1.2l-0.1-0.3l-0.1-0.3c-0.1-0.2-0.1-0.4-0.2-0.6c-0.1-0.2-0.2-0.4-0.2-0.6
		c-0.1-0.2-0.2-0.4-0.3-0.6c-0.4-0.8-0.8-1.5-1.3-2.2c-0.5-0.7-1-1.4-1.6-2c-0.6-0.6-1.1-1.3-1.8-1.9c-0.2-0.1-0.3-0.3-0.5-0.4
		l-0.5-0.4c-0.2-0.1-0.3-0.2-0.5-0.4c-0.2-0.1-0.4-0.2-0.5-0.3c-0.7-0.4-1.5-0.7-2.3-1c-0.8-0.3-1.6-0.4-2.4-0.5
		c-0.8-0.1-1.6-0.1-2.4,0c-0.2,0-0.4,0-0.6,0.1c-0.2,0-0.4,0.1-0.6,0.1c-0.2,0-0.4,0.1-0.6,0.1C60.9,1,60.8,1,60.6,1.1
		c-0.4,0.1-0.7,0.2-1,0.4c-0.3,0.1-0.7,0.3-1,0.5c-0.3,0.2-0.6,0.4-0.9,0.5c-0.3,0.2-0.5,0.4-0.8,0.6c-0.2,0.2-0.5,0.4-0.7,0.7
		C56,4,55.7,4.2,55.5,4.4c-0.4,0.4-0.8,0.8-1.1,1.2c-0.3,0.4-0.6,0.8-0.9,1.1c-0.3,0.4-0.5,0.7-0.7,1c-0.2,0.3-0.4,0.6-0.5,0.8
		c-0.1,0.2-0.3,0.5-0.4,0.6c-0.2,0.3-0.3,0.5-0.3,0.5C51.2,10.5,51.4,10.8,52.1,10.7"/>
	<path class="icon__path--color"  d="M53,43.8c0.2,0.1,0.4,0.1,0.6-0.3c0.1-0.1,0.1-0.2,0.2-0.3h0c0,0,0,0,0.1-0.1c0-0.1,0.1-0.2,0.2-0.4
		c0.2-0.3,0.4-0.8,0.5-1.5c0.1-0.3,0.1-0.7,0.1-1.1v-0.1v0v0l0-0.1c0,0,0-0.1,0-0.1c0-0.1,0-0.2,0-0.3c0,0,0-0.1,0-0.1l0-0.1l0-0.1
		c0-0.1,0-0.2-0.1-0.4c0-0.1,0-0.3-0.1-0.4c0-0.1-0.1-0.2-0.1-0.3c0-0.1-0.1-0.2-0.1-0.4s-0.1-0.2-0.2-0.3c-0.2-0.5-0.5-0.9-0.9-1.3
		c-0.7-0.9-1.6-1.6-2.7-2.1c-1.1-0.5-2.3-0.8-3.5-0.8c-0.2,0-0.3,0-0.5,0h-0.2h0h0h0l-0.1,0l-0.1,0c-0.3,0-0.6,0-0.9,0.1
		c-0.2,0-0.3,0.1-0.5,0.1c-0.2,0-0.3,0.1-0.5,0.1c-0.3,0.1-0.6,0.2-0.9,0.3c-0.6,0.2-1.2,0.5-1.8,0.9c-0.3,0.2-0.5,0.4-0.8,0.6
		c-0.2,0.2-0.5,0.4-0.7,0.7c-0.5,0.5-0.9,1-1.2,1.6c-0.2,0.3-0.3,0.6-0.4,1c0,0.2-0.1,0.4-0.1,0.5c0,0.1,0,0.2,0,0.3l0,0.3l0,0.3
		l0,0V40l0,0v0.1l0,0.1l0,0.2c0,0.1,0,0.2,0,0.3c0,0.2,0.1,0.4,0.1,0.6c0,0.2,0.1,0.3,0.1,0.5c0.2,0.7,0.5,1.3,0.9,1.9
		c0.1,0.1,0.2,0.3,0.3,0.4c0.1,0.1,0.2,0.3,0.3,0.4c0.1,0.1,0.2,0.2,0.4,0.3l0.2,0.2c0.1,0.1,0.1,0.1,0.2,0.1
		c0.1,0.1,0.3,0.2,0.4,0.3c0.1,0.1,0.3,0.2,0.4,0.3c0.3,0.2,0.5,0.3,0.8,0.4c1.1,0.5,2.2,0.8,3.2,0.8c0.5,0,1,0,1.4-0.1
		c0.5-0.1,0.9-0.1,1.3-0.2c0.8-0.2,1.4-0.5,2-0.7c0.5-0.3,0.9-0.5,1.2-0.7c0.1-0.1,0.2-0.2,0.3-0.2c0.1,0,0.1-0.1,0.1-0.1l0,0
		c0.4-0.3,0.4-0.5,0-0.6c-0.1,0-0.1,0-0.3,0.1c0,0,0,0-0.1,0.1c-0.1,0-0.2,0.1-0.3,0.2c-0.3,0.1-0.6,0.3-1.1,0.5
		c-0.5,0.2-1.1,0.4-1.9,0.5c-0.4,0-0.8,0.1-1.2,0.1c-0.4,0-0.8-0.1-1.3-0.1c-0.9-0.2-1.8-0.4-2.7-0.8c-0.9-0.4-1.8-1-2.5-1.9
		c-0.4-0.4-0.6-0.9-0.8-1.4c0-0.1-0.1-0.3-0.1-0.4c0-0.1-0.1-0.3-0.1-0.4c0-0.1,0-0.1,0-0.2l0-0.2l0-0.1l0-0.1l0,0l0-0.2
		c0-0.1,0-0.3,0-0.4c0-0.1,0-0.3,0-0.4c0.1-0.3,0.1-0.6,0.2-0.9c0.1-0.3,0.2-0.6,0.4-0.8l0.3-0.4c0.1-0.1,0.2-0.2,0.3-0.4l0.2-0.2
		c0.1-0.1,0.1-0.1,0.2-0.2c0.1-0.1,0.2-0.2,0.3-0.3c0.2-0.2,0.5-0.4,0.8-0.5c0.5-0.3,1.1-0.5,1.7-0.7c0.3-0.1,0.6-0.2,0.9-0.2
		c0.1,0,0.3,0,0.4-0.1c0.1,0,0.3,0,0.4,0c0.3,0,0.6,0,0.9,0h0.1h0.1h0c0,0,0,0,0,0l0,0l0.2,0c0.1,0,0.3,0,0.4,0
		c0.3,0,0.6,0.1,0.8,0.1c0.3,0.1,0.5,0.1,0.8,0.2c0.3,0.1,0.5,0.2,0.7,0.3c0.1,0.1,0.2,0.1,0.4,0.2c0.1,0.1,0.2,0.1,0.3,0.2
		c0.9,0.5,1.6,1.1,2.1,1.8c0.3,0.3,0.5,0.7,0.6,1c0,0.1,0.1,0.2,0.1,0.3c0,0.1,0.1,0.2,0.1,0.3c0,0.1,0.1,0.2,0.1,0.3
		c0,0.1,0,0.2,0,0.2c0,0.1,0,0.1,0,0.2l0,0.1l0,0.1c0,0,0,0.1,0,0.1c0,0.1,0,0.2,0,0.3c0,0,0,0.1,0,0.1v0l0,0v0.1
		c0,0.3-0.1,0.5-0.1,0.8c-0.1,0.5-0.3,0.8-0.4,1c-0.1,0.1-0.1,0.2-0.1,0.3c0,0.1-0.1,0.1-0.1,0.1c-0.2,0.4-0.2,0.5-0.2,0.5
		C51.9,43.2,52.5,43.5,53,43.8"/>
</g>
</svg>
