<?xml version="1.0" encoding="utf-8"?>
<svg version="1.1"  xmlns:dc="http://purl.org/dc/elements/1.1/" xmlns:svg="http://www.w3.org/2000/svg"
	 xmlns="http://www.w3.org/2000/svg"   viewBox="0 0 64.5 82" width="64.5" height="82"
	  >
	
<g>
	<path class="icon__path--color"  d="M23.4,80.4c0,0-0.1,0-0.3,0.1c-0.1,0-0.3,0.1-0.4,0.1c-0.2,0-0.3,0.1-0.6,0.2c-0.9,0.2-2.1,0.5-3.8,0.6
		c-1.6,0.1-3.7,0-5.9-0.7l-0.1,0l-0.1,0l0,0l-0.1,0l-0.2-0.1c-0.1,0-0.2-0.1-0.4-0.1l-0.1,0l-0.1,0l-0.2-0.1
		c-0.2-0.1-0.3-0.1-0.5-0.2c-0.3-0.1-0.6-0.3-0.9-0.4c-0.3-0.1-0.6-0.3-0.8-0.4C8,78.8,6.9,78,5.8,77.1c-1-0.9-2-2-2.9-3.2
		c-0.2-0.3-0.4-0.6-0.6-0.9c-0.2-0.3-0.4-0.7-0.6-1c-0.1-0.2-0.2-0.3-0.3-0.5l-0.1-0.1l0,0c0-0.1,0,0,0-0.1l0-0.1l-0.1-0.2l-0.1-0.2
		c0-0.1-0.1-0.2-0.1-0.3C1,70.1,1,69.9,0.9,69.8c-0.3-0.8-0.5-1.5-0.6-2.3C0.1,66.6,0,65.8,0,65c0-0.8,0-1.7,0.2-2.5
		c0.1-0.8,0.3-1.7,0.6-2.5l0.1-0.3l0.1-0.3C1,59.2,1.1,59,1.2,58.8c0.1-0.2,0.2-0.4,0.3-0.6l0-0.1l0-0.1l0.1-0.1l0.1-0.3
		c0.2-0.4,0.3-0.7,0.5-1.1c0.2-0.4,0.4-0.7,0.6-1.1c0.4-0.7,0.8-1.4,1.2-2.2c0.4-0.7,0.8-1.4,1.2-2.2c0.8-1.5,1.6-2.9,2.5-4.3
		c0.8-1.5,1.6-2.9,2.4-4.4c0.8-1.5,1.6-3,2.5-4.4c0.2-0.4,0.4-0.7,0.7-1.1c0.2-0.4,0.4-0.7,0.6-1.1c0.2-0.4,0.4-0.7,0.7-1.1l0.2-0.3
		l0.1-0.1l0-0.1l0.1-0.1c0.2-0.3,0.5-0.6,0.9-0.7c0.2-0.1,0.4-0.2,0.6-0.2c0.1,0,0.2,0,0.3,0c0,0,0.1,0,0.1,0l0.1,0l0.1,0
		c0.1,0,0.2,0,0.4,0c0.1,0,0.2,0,0.3,0.1l0.2,0.1c0.6,0.2,1,0.5,1.4,0.8c0.4,0.3,0.8,0.6,1.1,0.9c0.1,0.1,0.2,0.2,0.2,0.3l0.1,0.1
		l0.1,0.1l0.1,0.1l0.4,0.5c0.3,0.3,0.5,0.7,0.8,1c0.2,0.3,0.5,0.7,0.7,1c0.5,0.7,0.9,1.3,1.3,2c1.7,2.7,3.2,5.3,4.6,7.9
		c1.3,2.6,2.6,5.1,3.3,7.5c0.2,0.6,0.4,1.2,0.6,1.8c0.1,0.3,0.2,0.6,0.2,0.9c0.1,0.3,0.2,0.6,0.2,0.9c0.2,1.2,0.4,2.3,0.5,3.4
		c0.1,1.1,0.1,2.1-0.1,3c-0.1,0.5-0.1,0.9-0.2,1.3c-0.1,0.4-0.2,0.8-0.3,1.2c-0.5,1.5-1,2.5-1.4,3.3c-0.2,0.4-0.4,0.6-0.5,0.8
		c-0.1,0.2-0.2,0.3-0.2,0.3c-0.2,0.3-0.6,0.4-0.9,0.2c-0.3-0.2-0.7-0.3-0.2-0.8l0,0c0,0,0-0.1,0.1-0.3c0.1-0.2,0.2-0.4,0.4-0.8
		c0.3-0.7,0.7-1.7,1-3.1c0.1-0.3,0.1-0.7,0.2-1.1c0-0.4,0.1-0.8,0.1-1.2c0-0.8,0-1.7-0.2-2.6c-0.2-0.9-0.4-1.9-0.8-3
		c-0.1-0.2-0.2-0.5-0.3-0.8c-0.1-0.3-0.2-0.5-0.3-0.8c-0.2-0.5-0.5-1.1-0.8-1.6c-0.1-0.3-0.3-0.5-0.4-0.8c-0.1-0.3-0.3-0.6-0.4-0.8
		c-0.3-0.6-0.6-1.2-0.9-1.7c-0.6-1.2-1.2-2.4-1.8-3.7c-1.3-2.5-2.7-5.2-4.2-7.8c-0.4-0.7-0.8-1.3-1.2-2c-0.2-0.3-0.4-0.7-0.6-1
		c-0.2-0.3-0.4-0.6-0.6-0.9l-0.4-0.5l-0.1-0.1l0,0c0,0,0-0.1,0,0l0,0c0-0.1-0.1-0.1-0.2-0.2c-0.2-0.3-0.5-0.5-0.7-0.7
		c-0.2-0.2-0.5-0.4-0.7-0.4c0,0,0,0-0.1,0c0,0,0,0,0,0c0.1,0-0.1,0-0.2,0c0,0-0.1,0,0.1,0h0c0,0,0,0,0,0c0,0,0,0,0,0c0,0,0,0,0,0
		c0,0,0,0-0.1,0c0,0,0,0,0,0l0,0.1l-0.1,0.1l-0.2,0.2c-0.3,0.3-0.5,0.6-0.8,1c-0.3,0.3-0.5,0.6-0.8,1c-0.3,0.3-0.5,0.6-0.8,1
		c-1,1.3-2,2.6-2.8,4c-0.8,1.4-1.6,2.9-2.4,4.4c-0.7,1.5-1.4,3-2.1,4.5c-0.3,0.7-0.7,1.5-1,2.2c-0.3,0.7-0.6,1.5-0.9,2.2
		c-0.3,0.7-0.6,1.5-0.9,2.2c-0.2,0.4-0.3,0.7-0.4,1.1c-0.1,0.2-0.1,0.3-0.2,0.5l-0.1,0.3l-0.1,0.3c-0.7,2.8-0.4,5.6,0.6,7.9
		c1,2.4,2.6,4.3,4.3,5.7c0.9,0.7,1.8,1.3,2.7,1.7c0.2,0.1,0.4,0.2,0.7,0.3c0.2,0.1,0.5,0.2,0.7,0.3c0.1,0,0.2,0.1,0.3,0.1l0.1,0.1
		l0.1,0l0.1,0c0.1,0,0.3,0.1,0.4,0.1l0.2,0.1l0.1,0l0,0c0,0-0.1,0,0,0l0,0c1.7,0.4,3.3,0.4,4.6,0.3c1.3-0.1,2.2-0.4,2.9-0.6
		c0.2-0.1,0.3-0.1,0.4-0.1c0.1,0,0.2-0.1,0.3-0.1c0.2-0.1,0.3-0.1,0.3-0.1c1.1-0.4,1.8,0.5,2.8,1.2C25.8,78.4,26.5,78.8,23.4,80.4
		C23.4,80.4,23.4,80.4,23.4,80.4"/>
	<path class="icon__path--color"  d="M57.8,69.8c0,0-0.1,0-0.2,0.1c0,0-0.1,0-0.1,0.1c-0.1,0-0.1,0.1-0.2,0.1c-0.1,0.1-0.3,0.1-0.5,0.2
		c-0.7,0.3-1.7,0.6-3.1,0.8c-1.3,0.2-3,0.3-4.9-0.1c-0.2,0-0.5-0.1-0.7-0.1c-0.1,0-0.2-0.1-0.4-0.1l-0.2,0l-0.2-0.1
		c-0.2-0.1-0.4-0.1-0.6-0.2c-0.3-0.1-0.5-0.2-0.8-0.3c-1-0.4-1.9-1-2.8-1.7c-0.9-0.7-1.8-1.5-2.5-2.5c-0.2-0.2-0.4-0.5-0.6-0.7
		c-0.1-0.1-0.2-0.3-0.3-0.4c-0.1-0.1-0.2-0.3-0.3-0.4c-0.2-0.3-0.3-0.5-0.5-0.8c-0.1-0.1-0.1-0.3-0.2-0.4L38.8,63l-0.1-0.1l0-0.1
		c-0.1-0.1-0.1-0.3-0.2-0.4c0-0.1-0.1-0.1-0.1-0.2l-0.1-0.2c-0.1-0.3-0.2-0.6-0.3-1c-0.2-0.6-0.3-1.3-0.4-2c-0.1-0.7-0.1-1.4,0-2.1
		c0-0.7,0.2-1.4,0.3-2.1c0.2-0.7,0.4-1.3,0.7-2l0.2-0.5l0.2-0.4c0.1-0.3,0.3-0.6,0.4-0.9c0.3-0.6,0.6-1.2,0.9-1.7
		c0.3-0.6,0.6-1.2,1-1.7c0.6-1.2,1.3-2.3,2-3.5c0.7-1.2,1.3-2.3,1.9-3.5l0.5-0.9c0.2-0.3,0.3-0.6,0.5-0.9c0.3-0.6,0.6-1.2,1-1.8
		c0.3-0.6,0.7-1.2,1-1.8c0.2-0.3,0.3-0.6,0.5-0.8c0.1-0.1,0.2-0.3,0.3-0.4l0.1-0.2l0.1-0.1l0-0.1l0.1-0.1c0.2-0.3,0.5-0.5,0.8-0.7
		c0.3-0.2,0.7-0.3,1-0.3l0.2,0c0,0,0.1,0,0.2,0c0.2,0,0.4,0.1,0.5,0.1l0.2,0.1l0.2,0.1c0.1,0,0.2,0.1,0.3,0.2c0.4,0.2,0.7,0.5,1,0.7
		c0.2,0.1,0.3,0.3,0.4,0.4c0.1,0.1,0.1,0.1,0.2,0.2l0.1,0.1l0,0c0,0,0,0,0.1,0.1l0.1,0.1l0.3,0.4c0.1,0.1,0.2,0.3,0.3,0.4l0.3,0.4
		l0.3,0.4c0.4,0.5,0.7,1.1,1.1,1.6c1.4,2.1,2.6,4.3,3.7,6.3c0.5,1,1.1,2,1.5,3.1c0.5,1,0.8,2,1.2,3c0.1,0.2,0.2,0.5,0.2,0.7
		c0.1,0.3,0.1,0.5,0.2,0.7c0.1,0.5,0.2,1,0.4,1.5c0.2,1,0.3,1.9,0.4,2.8c0.1,0.9,0,1.7-0.1,2.5c0,0.4-0.1,0.8-0.2,1.1
		c0,0.2-0.1,0.3-0.1,0.5c0,0.2-0.1,0.3-0.1,0.5c-0.4,1.2-0.8,2.1-1.2,2.6c-0.2,0.3-0.3,0.5-0.4,0.6c-0.1,0.1-0.1,0.2-0.1,0.2
		c-0.2,0.3-0.6,0.4-0.9,0.2c-0.3-0.2-0.6-0.4-0.2-0.8l0,0c0,0,0-0.1,0.1-0.2c0.1-0.1,0.2-0.3,0.3-0.6c0.2-0.5,0.6-1.4,0.8-2.4
		c0-0.1,0-0.3,0.1-0.4c0-0.1,0-0.3,0.1-0.4c0-0.3,0-0.6,0-0.9c0-0.6-0.1-1.3-0.2-2.1c-0.1-0.7-0.4-1.5-0.7-2.3
		c-0.2-0.4-0.3-0.8-0.5-1.2c-0.1-0.2-0.2-0.4-0.3-0.6c-0.1-0.2-0.2-0.4-0.3-0.6c-0.2-0.4-0.5-0.9-0.7-1.3c-0.2-0.5-0.5-0.9-0.7-1.4
		c-0.2-0.5-0.5-1-0.7-1.4c-0.3-0.5-0.5-1-0.8-1.5c-1-2-2.2-4.1-3.4-6.3c-0.3-0.5-0.6-1.1-0.9-1.6l-0.2-0.4L52.8,37
		c-0.1-0.1-0.1-0.2-0.2-0.4l-0.3-0.4l-0.1-0.1c0.1,0.1,0,0,0,0l0,0l0,0c0,0-0.1-0.1-0.1-0.1c-0.1-0.1-0.2-0.2-0.3-0.3
		c-0.2-0.2-0.4-0.3-0.5-0.4c0,0-0.1-0.1-0.1-0.1l0,0c0,0,0,0,0,0c0,0,0,0,0,0c0,0,0,0-0.1,0l-0.1,0l0,0c-0.1,0,0.1,0,0.1,0
		c0,0,0.1,0,0.1,0c0,0,0,0,0,0c0,0,0,0,0,0l0,0c0,0,0,0,0,0l0,0l0,0l-0.2,0.2c-0.1,0.1-0.2,0.3-0.3,0.4l-0.3,0.4l-0.2,0.2L50,36.5
		c-0.4,0.5-0.9,1-1.3,1.5c-0.4,0.5-0.8,1-1.2,1.6c-0.2,0.3-0.4,0.5-0.5,0.8c-0.1,0.1-0.2,0.3-0.3,0.4l-0.3,0.4
		c-0.7,1.2-1.3,2.3-1.9,3.5c-0.6,1.2-1.1,2.4-1.6,3.6c-0.3,0.6-0.5,1.2-0.8,1.8c-0.2,0.6-0.5,1.2-0.7,1.8c-0.1,0.3-0.2,0.6-0.3,0.9
		L41,53.3l-0.1,0.4c-0.2,0.5-0.3,1.1-0.4,1.6c-0.1,0.5-0.1,1.1-0.1,1.6c0,0.5,0.1,1.1,0.2,1.6c0.1,0.5,0.2,1,0.4,1.5
		c0.1,0.2,0.2,0.5,0.3,0.7l0.1,0.2c0,0.1,0,0.1,0.1,0.2c0.1,0.1,0.1,0.3,0.2,0.4l0,0.1c0-0.1,0,0,0,0l0,0l0,0l0.1,0.2
		c0.1,0.1,0.1,0.2,0.2,0.3c0.1,0.2,0.3,0.4,0.4,0.6c0.1,0.1,0.1,0.2,0.2,0.3c0.1,0.1,0.2,0.2,0.2,0.3c0.1,0.2,0.3,0.4,0.5,0.5
		c0.6,0.7,1.3,1.3,2.1,1.8c0.7,0.5,1.5,0.8,2.2,1.1c0.2,0.1,0.3,0.1,0.5,0.2c0.2,0.1,0.4,0.1,0.6,0.2l0,0c0,0-0.1,0,0,0l0,0l0.1,0
		l0.1,0c0.1,0,0.2,0,0.3,0.1c0.2,0,0.3,0.1,0.5,0.1c1.4,0.2,2.6,0.1,3.5-0.1c1-0.2,1.7-0.5,2.1-0.7c0.1-0.1,0.2-0.1,0.3-0.1
		c0,0,0.1,0,0.1-0.1c0,0,0.1,0,0.1-0.1C55.9,66.1,56,66,56,66c1-0.5,2,0.2,2.9,0.9C59.6,67.6,60.5,68,57.8,69.8
		C57.9,69.8,57.9,69.8,57.8,69.8"/>
	<path class="icon__path--color"  d="M38.8,38.6c0,0-0.1,0-0.2,0.1c-0.1,0-0.2,0.1-0.3,0.1c-0.1,0-0.3,0.1-0.5,0.1c-0.7,0.2-1.7,0.4-3.1,0.5
		c-0.3,0-0.7,0-1.1,0c-0.1,0-0.2,0-0.3,0c-0.1,0-0.2,0-0.3,0c-0.2,0-0.4,0-0.6-0.1c-0.4,0-0.8-0.1-1.2-0.2c-0.2,0-0.4-0.1-0.6-0.1
		c-0.1,0-0.2-0.1-0.3-0.1l-0.2,0l-0.1,0l-0.1,0l0,0c-0.2-0.1-0.4-0.1-0.6-0.2c-0.2-0.1-0.5-0.2-0.7-0.3c-0.2-0.1-0.5-0.2-0.7-0.3
		c-0.2-0.1-0.5-0.2-0.7-0.4c-0.9-0.5-1.8-1.2-2.6-1.9s-1.6-1.6-2.3-2.6c-0.2-0.3-0.3-0.5-0.5-0.8c-0.1-0.3-0.3-0.5-0.4-0.8
		c-0.1-0.1-0.1-0.3-0.2-0.4l0-0.1l0,0l0-0.1l-0.1-0.2l-0.1-0.2c0-0.1-0.1-0.2-0.1-0.2c-0.1-0.2-0.1-0.3-0.2-0.5
		c-0.4-1.2-0.6-2.5-0.7-3.9c0-1.3,0.2-2.7,0.6-4c0-0.2,0.1-0.3,0.2-0.5c0.1-0.2,0.1-0.3,0.2-0.5l0.2-0.5l0.2-0.4
		c0.1-0.3,0.3-0.6,0.4-0.9c0.1-0.3,0.3-0.6,0.5-0.9c0.6-1.1,1.3-2.3,1.9-3.4c0.6-1.1,1.3-2.3,2-3.4c0.7-1.1,1.3-2.3,1.9-3.5
		c0.6-1.2,1.3-2.4,1.9-3.5l0.5-0.9c0.2-0.3,0.3-0.6,0.5-0.8c0.2-0.3,0.3-0.6,0.5-0.8l0.1-0.1l0-0.1c0,0,0,0,0-0.1
		c0,0,0.1-0.1,0.1-0.1l0.1-0.1c0.1-0.1,0.1-0.1,0.2-0.2c0.2-0.2,0.6-0.4,0.9-0.5c0.2-0.1,0.3-0.1,0.5-0.1l0.1,0l0.2,0l0.1,0
		c0.1,0,0.4,0.1,0.5,0.1c0.1,0,0.3,0.1,0.4,0.1c0.5,0.2,0.8,0.4,1.2,0.7c0.3,0.2,0.6,0.5,0.9,0.8l0.1,0.1l0.1,0.1
		c0,0,0.1,0.1,0.1,0.1l0,0L37,2.7c0.1,0.1,0.2,0.2,0.3,0.4l0.3,0.4c0.1,0.1,0.2,0.3,0.3,0.4c0.2,0.3,0.4,0.5,0.6,0.8
		c0.4,0.5,0.7,1.1,1.1,1.6c1.4,2.1,2.6,4.2,3.6,6.3c0.3,0.5,0.5,1,0.8,1.5c0.1,0.3,0.2,0.5,0.4,0.8c0.1,0.2,0.2,0.5,0.3,0.7
		c0.5,1,0.8,2,1.1,3c0.6,2,1,3.9,1.1,5.7c0,0.9,0,1.7-0.1,2.4c-0.1,0.8-0.3,1.4-0.5,2c-0.4,1.2-0.9,2-1.2,2.6
		c-0.2,0.3-0.3,0.5-0.4,0.6c-0.1,0.1-0.1,0.2-0.1,0.2c-0.2,0.3-0.6,0.3-0.9,0.1c-0.3-0.2-0.6-0.3-0.2-0.8l0,0c0,0,0-0.1,0.1-0.2
		c0.1-0.1,0.2-0.3,0.3-0.6c0.2-0.5,0.6-1.3,0.8-2.4c0.1-0.5,0.2-1.1,0.2-1.7c0-0.6,0-1.3-0.2-2c-0.1-0.7-0.3-1.5-0.6-2.3L44.1,22
		l0-0.1c0,0,0,0,0,0l0,0c0-0.1-0.1-0.2-0.1-0.3c-0.1-0.2-0.2-0.4-0.3-0.6c-0.2-0.4-0.4-0.8-0.6-1.2c-0.2-0.4-0.4-0.9-0.7-1.3
		c-0.2-0.4-0.5-0.9-0.7-1.4c-0.5-0.9-0.9-1.9-1.4-2.9c-1-2-2.1-4.1-3.3-6.2c-0.3-0.5-0.6-1.1-0.9-1.6c-0.2-0.3-0.3-0.5-0.5-0.8
		c-0.1-0.1-0.2-0.2-0.2-0.4l-0.2-0.4c-0.1-0.1-0.2-0.3-0.3-0.4l-0.1-0.2l0,0c0,0,0,0.1,0,0l0,0l-0.1-0.1c-0.2-0.2-0.3-0.4-0.5-0.5
		c-0.2-0.2-0.4-0.3-0.5-0.4c0,0-0.1,0-0.1,0c0,0,0.1,0,0,0l-0.1,0l0,0c0,0-0.1,0,0.1,0l0,0l0,0c0,0,0.1,0,0.1-0.1c0,0,0,0,0,0
		c0,0,0,0,0,0l0,0c0,0,0,0,0,0l0,0c0,0,0,0,0,0l-0.1,0.1C33.2,3.5,33,3.7,32.8,4l-0.3,0.4l-0.3,0.4l-0.6,0.7c-0.8,1-1.6,2-2.3,3.1
		c-0.7,1.1-1.3,2.3-1.9,3.5c-0.6,1.2-1.1,2.4-1.6,3.5c-0.3,0.6-0.5,1.2-0.8,1.8c-0.2,0.6-0.5,1.2-0.7,1.8c-0.2,0.6-0.4,1.2-0.7,1.8
		l-0.2,0.4l-0.1,0.4c0,0.1-0.1,0.3-0.1,0.4c0,0.1-0.1,0.3-0.1,0.4c-0.3,1.1-0.3,2.1-0.2,3.2c0.1,1,0.3,2,0.7,2.9
		c0.8,1.8,2,3.3,3.3,4.4c0.7,0.5,1.4,1,2,1.3c0.2,0.1,0.3,0.2,0.5,0.2c0.2,0.1,0.3,0.1,0.5,0.2c0.2,0,0.3,0.1,0.4,0.1
		c0.2,0.1,0.4,0.1,0.6,0.2l0,0c-0.1,0,0,0,0,0l0,0l0.1,0l0.1,0c0.1,0,0.2,0,0.2,0c0.2,0,0.3,0.1,0.5,0.1c0.3,0,0.6,0.1,0.9,0.1
		c0.1,0,0.3,0,0.4,0c0.1,0,0.1,0,0.2,0c0.1,0,0.1,0,0.2,0c0.3,0,0.5,0,0.8,0c1-0.1,1.7-0.3,2.2-0.4c0.1,0,0.2-0.1,0.3-0.1
		c0.1,0,0.2-0.1,0.2-0.1c0.2-0.1,0.2-0.1,0.2-0.1c1.1-0.4,1.8,0.5,2.8,1.2C41.1,36.6,41.9,36.6,38.8,38.6
		C38.8,38.5,38.8,38.6,38.8,38.6"/>
</g>
</svg>
